<?xml version="1.0" encoding="utf-8"?>
<svg version="1.1" xmlns="http://www.w3.org/2000/svg" xmlns:xlink="http://www.w3.org/1999/xlink" viewBox="0 0 500 500" style="enable-background:new 0 0 500 500;" fill="#000000">
<path id="XMLID_2_" d="M415,172.4c-12.1-26-29.5-47.9-52.6-66.3c0.6,12.5,2,39.2,2,39.2s1.4,1.9,2,2.7c23.4,32.6,31.9,68.8,24.1,108c-15.6,78.7-92.3,126.8-170.1,107.1c-68.3-17.2-113.9-87.1-101-156.3c10.2-54.6,42.5-91,94.9-109.5l1.9-0.7l1.5-1.1c6.4-9,12.6-18.1,19.2-27.7c-79.5,3.9-159.4,67.7-168.6,164.7c-8.9,93.9,54.4,177.6,144.9,195.9C307.4,447.6,397.1,392,424.2,303C437.8,258.5,434.6,214.7,415,172.4z M190.7,231.1c4,37.8,36.7,63.5,74.6,59.3c37.2-4.1,64.4-40.5,57.4-77.3c-5.5-28.7-11.6-57.3-17.4-85.9c-2.4-11.9-4.8-23.7-7.4-36.2c-1,0.9-1.5,1.3-1.9,1.7c-12.7,12.5-25.5,25-38.2,37.5c-15.5,15.2-31,30.5-46.6,45.6C195.6,191,188.5,209.5,190.7,231.1z" />
</svg>
