<svg width="512" height="512" version="1.1" xmlns="http://www.w3.org/2000/svg">
<g transform="translate(0 -540.36)">
	<path d="m504.07 795.78a246.98 247.49 0 0 1-244.38 247.47 246.98 247.49 0 0 1-249.53-242.26 246.98 247.49 0 0 1 239.12-252.58 246.98 247.49 0 0 1 254.57 236.94" fill="#fff" stroke-opacity="0" style="paint-order:stroke fill markers"/>
	<path d="m266.77 619.58c-55.493-0.20569-112.46 24.098-144.98 69.862-33.839 46.93-42.368 108.89-31.167 164.85 7.8678 37.355 29.716 72.658 63.162 92.177 38.151 23.072 84.67 26.525 128.15 21.549 21.822-2.6454 43.306-8.4756 63.265-17.608v-41.377c-44.856 18.599-96.137 27.66-143.81 14.308-33.494-9.4402-60.719-38.311-68.086-72.322-8.7944-34.622-6.6579-71.854 4.4874-105.63 11.936-33.757 37.816-62.961 71.798-75.244 33.908-13.273 72.861-14.489 107.47-3.0294 30.843 11.313 55.978 37.939 63.674 69.855 8.0003 29.212 7.0789 61.483-4.2218 89.603-4.9824 11.849-16.243 23.934-30.286 21.222-7.7703-1.2524-13.838-7.8408-14.596-15.618-4.1453-19.593 0.94491-39.622 0.61636-59.426 1.0684-20.032 2.1327-40.063 3.2357-60.093-31.62-9.4676-65.774-15.557-98.398-7.9138-33.03 9.0548-58.366 38.778-63.894 72.451-4.8269 25.07-2.73 52.148 8.8647 74.95 10.721 19.545 31.475 33.457 53.978 34.32 24.828 2.3307 51.276-8.0342 65.383-29.001 9.1848 20.963 33.764 32.888 56.104 28.642 26.65-3.6567 48.154-24.512 57.545-48.976 15.526-36.269 14.825-78.027 4.0617-115.51-12.834-41.37-44.773-76.769-86.001-91.176-21.116-7.9448-43.787-11.308-66.352-10.865zm-2.6204 120.25c8.7753-0.0282 17.586 0.68514 26.1 2.5418-2.4942 28.581 0.56322 58.508-10.423 85.581-5.2581 11.435-16.751 20.324-29.565 20.154-13.413 1.3148-28.312-6.5676-31.445-20.398-5.9933-18.351-4.2246-38.663 1.2572-56.879 6.1434-16.734 21.778-30.605 40.198-30.79 1.2895-0.11169 2.5841-0.18249 3.8783-0.20963z" fill="#000"/>
</g>
</svg>
